<?xml version="1.0" encoding="UTF-8"?>
<svg xmlns="http://www.w3.org/2000/svg" xmlns:xlink="http://www.w3.org/1999/xlink" width="175px" height="70px" viewBox="0 0 175 70" version="1.1">
<g id="surface1">
<path style=" stroke:none;fill-rule:nonzero;fill:rgb(23.529412%,26.666668%,35.294119%);fill-opacity:1;" d="M 34.015625 0.277344 C 43.273438 0.277344 52.535156 0.277344 62.003906 0.40625 C 62.503906 2.730469 62.691406 4.933594 63.105469 7.121094 C 64.386719 13.933594 67.261719 20.488281 71.785156 26.753906 C 72.6875 28 73.441406 29.402344 76.300781 29.445312 C 76.519531 29.449219 76.726562 29.777344 76.761719 29.9375 C 75.714844 30.0625 74.328125 30.042969 74.0625 30.367188 C 72.253906 32.597656 70.679688 34.902344 69.027344 37.183594 C 69.160156 37.300781 69.292969 37.417969 69.421875 37.535156 C 70.199219 37.332031 71.230469 37.261719 71.703125 36.90625 C 73.332031 35.671875 77.835938 35.667969 79.417969 36.890625 C 79.878906 37.246094 80.949219 37.304688 82.296875 37.632812 C 81.523438 36.386719 81.046875 35.625 80.734375 34.859375 C 81.636719 34.675781 82.382812 34.492188 83.171875 34.433594 C 83.371094 35.535156 83.53125 36.511719 83.703125 37.585938 C 83.695312 39.386719 85.121094 40.6875 86.796875 41.921875 C 92.296875 45.980469 98.289062 49.695312 105.046875 52.988281 C 113.363281 57.046875 122.4375 60.238281 132.078125 62.839844 C 140.703125 65.171875 149.765625 66.636719 159.089844 67.445312 C 160.875 67.601562 161.699219 67.988281 160.921875 69.144531 C 149.925781 69.164062 139.136719 69.179688 128.351562 69.171875 C 115.40625 69.164062 102.460938 69.140625 89.472656 69.035156 C 85.96875 67.089844 82.394531 65.308594 79.058594 63.367188 C 68.488281 57.226562 59.15625 50.441406 52.007812 42.605469 C 50.203125 40.628906 47.003906 38.796875 48.964844 36.0625 C 49.957031 36.03125 50.808594 35.9375 51.585938 36.046875 C 52.414062 36.160156 53.558594 36.332031 53.886719 36.707031 C 54.671875 37.597656 55.574219 37.488281 56.902344 37.238281 C 55.582031 35.414062 54.4375 33.664062 53.050781 31.992188 C 52.410156 31.21875 52.640625 29.960938 50.410156 29.894531 C 48.210938 29.824219 48.667969 31.191406 47.535156 31.679688 C 46.589844 31.1875 45.691406 30.824219 44.972656 30.359375 C 44.175781 29.84375 43.539062 29.234375 42.835938 28.667969 C 40.445312 24.132812 37.949219 19.5 36.542969 14.742188 C 35.132812 9.984375 34.8125 5.101562 34.015625 0.277344 M 58.703125 29.921875 C 58.488281 30.082031 58.089844 30.238281 58.085938 30.402344 C 58.042969 32.691406 58.058594 34.984375 58.058594 37.332031 C 58.902344 37.332031 59.523438 37.332031 60.429688 37.332031 C 60.429688 35.78125 60.429688 34.304688 60.429688 32.667969 C 63.222656 34.238281 64.519531 36.386719 67.738281 37.410156 C 68.078125 35.066406 68.117188 32.859375 68.027344 30.65625 C 68.019531 30.402344 67.296875 30.152344 66.902344 29.902344 C 66.53125 30.167969 65.871094 30.417969 65.839844 30.699219 C 65.714844 31.816406 65.789062 32.941406 65.789062 34.449219 C 64.980469 33.875 64.621094 33.609375 64.246094 33.355469 C 62.523438 32.207031 60.796875 31.058594 58.703125 29.921875 Z M 58.703125 29.921875 "/>
<path style=" stroke:none;fill-rule:nonzero;fill:rgb(28.235295%,31.37255%,39.215687%);fill-opacity:1;" d="M 76.535156 0.277344 C 83.257812 0.277344 89.980469 0.277344 96.929688 0.394531 C 98.203125 4.257812 98.816406 8.082031 100.402344 11.742188 C 103.140625 18.070312 107.570312 23.949219 114.972656 28.78125 C 116.269531 29.628906 117.636719 30.734375 120.085938 30.300781 C 120.316406 30.261719 120.6875 30.519531 120.925781 30.71875 C 120.484375 31.136719 120.046875 31.457031 119.753906 31.820312 C 118.453125 33.445312 118.996094 35.535156 120.964844 36.640625 C 122.9375 37.75 126.59375 37.945312 128.824219 36.96875 C 129.472656 36.6875 130.148438 36.164062 130.222656 35.710938 C 130.375 34.820312 130.113281 33.902344 130.210938 32.984375 C 130.78125 32.957031 131.160156 32.941406 131.558594 33.046875 C 131.597656 35.65625 133.003906 37.109375 136.121094 37.429688 C 137.664062 37.585938 139.324219 37.316406 140.984375 37.328125 C 141.035156 37.898438 141.035156 38.378906 141.035156 38.902344 C 146.9375 41.402344 164 44.007812 174.519531 44.113281 C 174.527344 44.894531 174.507812 45.558594 174.457031 46.246094 C 174.378906 46.34375 174.398438 46.410156 174.507812 46.597656 C 174.511719 50.703125 174.492188 54.679688 174.292969 58.679688 C 173.089844 58.78125 172.054688 58.929688 171.027344 58.921875 C 160.964844 58.824219 151.277344 57.605469 141.792969 55.492188 C 127.601562 52.328125 115.140625 47.539062 104.546875 40.925781 C 102.964844 39.9375 101.910156 38.625 100.671875 37.367188 C 100.730469 35.277344 100.730469 33.289062 100.730469 31.277344 C 101.875 31.246094 102.496094 31.300781 103.039062 31.195312 C 103.625 31.082031 104.140625 30.820312 104.6875 30.621094 C 104.136719 30.378906 103.605469 29.949219 103.035156 29.929688 C 100.8125 29.847656 98.578125 29.859375 96.355469 29.921875 C 95.738281 29.941406 95.140625 30.253906 94.367188 30.425781 C 91.050781 29.628906 88.707031 28.355469 87.519531 26.316406 C 86.917969 25.28125 86.089844 24.296875 85.308594 23.304688 C 79.589844 16.035156 76.960938 8.316406 76.535156 0.277344 M 108.683594 30.222656 C 108.375 30.347656 108.042969 30.457031 107.761719 30.605469 C 105.335938 31.894531 104.746094 34.167969 106.390625 35.863281 C 107.871094 37.390625 111.285156 38.015625 114.257812 37.300781 C 116.984375 36.648438 118.441406 34.714844 117.714844 32.726562 C 116.824219 30.296875 113.382812 29.273438 108.683594 30.222656 Z M 108.683594 30.222656 "/>
<path style=" stroke:none;fill-rule:nonzero;fill:rgb(20.392157%,23.921569%,32.549021%);fill-opacity:1;" d="M 8.953125 0.277344 C 11.347656 0.277344 13.746094 0.277344 16.351562 0.402344 C 16.703125 1.578125 16.957031 2.628906 16.976562 3.679688 C 17.089844 9.363281 18.472656 14.957031 20.875 20.40625 C 23.34375 26.003906 26.476562 31.492188 29.347656 37.023438 C 29.417969 37.160156 29.796875 37.234375 30.179688 37.359375 C 30.507812 37.417969 30.695312 37.457031 30.898438 37.601562 C 31.867188 39.328125 32.742188 40.976562 33.800781 42.574219 C 34.390625 43.460938 35.292969 44.269531 36.039062 45.117188 C 43.324219 53.402344 52.472656 60.832031 63.03125 67.617188 C 63.738281 68.066406 64.28125 68.617188 64.691406 69.136719 C 60.742188 69.144531 57.003906 69.132812 53.25 69.027344 C 52.863281 68.546875 52.546875 68.132812 52.113281 67.777344 C 46.683594 63.335938 40.851562 59.058594 35.886719 54.429688 C 29.382812 48.359375 24.136719 41.84375 19.777344 35.050781 C 12.609375 23.867188 9.183594 12.269531 8.953125 0.277344 Z M 8.953125 0.277344 "/>
<path style=" stroke:none;fill-rule:nonzero;fill:rgb(21.960784%,25.098041%,33.725491%);fill-opacity:1;" d="M 30.035156 37.339844 C 29.796875 37.234375 29.417969 37.160156 29.347656 37.023438 C 26.476562 31.492188 23.34375 26.003906 20.875 20.40625 C 18.472656 14.957031 17.089844 9.363281 16.976562 3.679688 C 16.957031 2.628906 16.703125 1.578125 16.558594 0.402344 C 22.238281 0.277344 27.917969 0.277344 33.804688 0.277344 C 34.8125 5.101562 35.132812 9.984375 36.542969 14.742188 C 37.949219 19.5 40.445312 24.132812 42.835938 28.667969 C 43.539062 29.234375 44.175781 29.84375 44.972656 30.359375 C 45.691406 30.824219 46.589844 31.1875 47.511719 31.773438 C 46.402344 33.730469 45.183594 35.511719 43.703125 37.292969 C 43.257812 36.832031 42.929688 36.382812 42.914062 35.925781 C 42.855469 33.960938 42.890625 31.992188 42.890625 30.046875 C 38.757812 29.324219 38.519531 31.894531 36.332031 32.734375 C 34.015625 32.054688 34.003906 29.425781 30.035156 30.023438 C 30.035156 32.480469 30.035156 34.910156 30.035156 37.339844 Z M 30.035156 37.339844 "/>
<path style=" stroke:none;fill-rule:nonzero;fill:rgb(32.156864%,34.901962%,42.352942%);fill-opacity:1;" d="M 122.632812 0.277344 C 126.523438 0.277344 130.410156 0.277344 134.507812 0.402344 C 134.742188 1.125 134.617188 1.742188 134.8125 2.316406 C 137.496094 10.160156 144.105469 16.226562 155.621094 20.191406 C 161.542969 22.230469 168.101562 22.78125 174.507812 23.921875 C 174.519531 25.351562 174.5 26.652344 174.449219 27.984375 C 174.371094 28.085938 174.390625 28.152344 174.5 28.332031 C 174.511719 29.019531 174.492188 29.589844 174.300781 30.183594 C 171.105469 30.140625 168.03125 30.269531 165.078125 29.964844 C 156.554688 29.085938 148.9375 26.96875 142.214844 23.515625 C 135.332031 19.976562 129.535156 15.910156 126.507812 10.710938 C 124.566406 7.375 123.882812 3.765625 122.632812 0.277344 Z M 122.632812 0.277344 "/>
<path style=" stroke:none;fill-rule:nonzero;fill:rgb(19.607843%,23.137255%,32.156864%);fill-opacity:1;" d="M 8.742188 0.277344 C 9.183594 12.269531 12.609375 23.867188 19.777344 35.050781 C 24.136719 41.84375 29.382812 48.359375 35.886719 54.429688 C 40.851562 59.058594 46.683594 63.335938 52.113281 67.777344 C 52.546875 68.132812 52.863281 68.546875 53.042969 69.042969 C 50 69.144531 47.15625 69.136719 44.296875 69.027344 C 43.84375 68.410156 43.507812 67.839844 42.945312 67.378906 C 39.097656 64.226562 34.792969 61.253906 31.402344 57.925781 C 22.101562 48.800781 13.875 39.339844 9.320312 28.808594 C 5.269531 19.453125 2.210938 10.015625 2.238281 0.277344 C 4.335938 0.277344 6.433594 0.277344 8.742188 0.277344 Z M 8.742188 0.277344 "/>
<path style=" stroke:none;fill-rule:nonzero;fill:rgb(19.215687%,22.352941%,31.37255%);fill-opacity:1;" d="M 2.015625 0.277344 C 2.210938 10.015625 5.269531 19.453125 9.320312 28.808594 C 13.875 39.339844 22.101562 48.800781 31.402344 57.925781 C 34.792969 61.253906 39.097656 64.226562 42.945312 67.378906 C 43.507812 67.839844 43.84375 68.410156 44.089844 69.042969 C 40.601562 69.144531 37.308594 69.136719 33.984375 69.035156 C 33.722656 68.652344 33.554688 68.339844 33.261719 68.078125 C 30.195312 65.304688 27.085938 62.546875 24.027344 59.769531 C 14.085938 50.742188 6.929688 40.910156 1.777344 30.488281 C 1.5625 30.058594 0.902344 29.714844 0.449219 29.328125 C 0.449219 19.644531 0.449219 9.960938 0.449219 0.277344 C 0.898438 0.277344 1.34375 0.277344 2.015625 0.277344 Z M 2.015625 0.277344 "/>
<path style=" stroke:none;fill-rule:nonzero;fill:rgb(33.725491%,36.470589%,43.921569%);fill-opacity:1;" d="M 174.480469 23.792969 C 168.101562 22.78125 161.542969 22.230469 155.621094 20.191406 C 144.105469 16.226562 137.496094 10.160156 134.8125 2.316406 C 134.617188 1.742188 134.742188 1.125 134.71875 0.402344 C 140.25 0.277344 145.777344 0.277344 151.515625 0.394531 C 151.972656 1.367188 152.03125 2.265625 152.492188 3.074219 C 154.832031 7.175781 159.582031 9.96875 165.804688 11.730469 C 168.496094 12.488281 171.671875 13.683594 174.503906 11.75 C 174.515625 15.847656 174.5 19.820312 174.480469 23.792969 Z M 174.480469 23.792969 "/>
<path style=" stroke:none;fill-rule:nonzero;fill:rgb(25.882354%,29.019609%,37.254903%);fill-opacity:1;" d="M 76.324219 0.277344 C 76.960938 8.316406 79.589844 16.035156 85.308594 23.304688 C 86.089844 24.296875 86.917969 25.28125 87.519531 26.316406 C 88.707031 28.355469 91.050781 29.628906 94.417969 30.496094 C 94.628906 30.730469 94.621094 30.886719 94.535156 31.152344 C 94.070312 31.457031 93.6875 31.65625 93.242188 31.769531 C 92.1875 29.789062 88.984375 29.675781 83.132812 30.136719 C 83.132812 31.507812 83.132812 32.910156 83.132812 34.3125 C 82.382812 34.492188 81.636719 34.675781 80.617188 34.792969 C 79.210938 33.136719 78.074219 31.546875 76.941406 29.957031 C 76.726562 29.777344 76.519531 29.449219 76.300781 29.445312 C 73.441406 29.402344 72.6875 28 71.785156 26.753906 C 67.261719 20.488281 64.386719 13.933594 63.105469 7.121094 C 62.691406 4.933594 62.503906 2.730469 62.210938 0.40625 C 66.847656 0.277344 71.480469 0.277344 76.324219 0.277344 Z M 76.324219 0.277344 "/>
<path style=" stroke:none;fill-rule:nonzero;fill:rgb(30.19608%,33.333334%,41.176471%);fill-opacity:1;" d="M 174.492188 43.988281 C 164 44.007812 146.9375 41.402344 141.035156 38.902344 C 141.035156 38.378906 141.035156 37.898438 141.074219 37.261719 C 141.570312 36.867188 142.085938 36.660156 142.472656 36.390625 C 145.398438 34.324219 143.695312 30.433594 139.585938 29.792969 C 138.214844 29.589844 136.796875 29.21875 135.613281 29.410156 C 133.207031 29.800781 131.53125 29.253906 130.078125 28.242188 C 127.015625 26.117188 123.785156 24.066406 121.050781 21.789062 C 113.398438 15.417969 109.277344 8.230469 108.757812 0.277344 C 110.414062 0.277344 112.066406 0.277344 113.960938 0.386719 C 114.324219 0.859375 114.496094 1.21875 114.550781 1.582031 C 115.335938 6.890625 117.914062 11.863281 122.101562 16.503906 C 126.808594 21.722656 132.972656 26.03125 141.304688 29.300781 C 148.175781 31.996094 155.34375 33.929688 163.242188 34.898438 C 166.957031 35.355469 170.730469 35.617188 174.507812 36.097656 C 174.519531 38.8125 174.507812 41.402344 174.492188 43.988281 Z M 174.492188 43.988281 "/>
<path style=" stroke:none;fill-rule:nonzero;fill:rgb(30.980393%,34.117648%,41.568628%);fill-opacity:1;" d="M 174.480469 35.96875 C 170.730469 35.617188 166.957031 35.355469 163.242188 34.898438 C 155.34375 33.929688 148.175781 31.996094 141.304688 29.300781 C 132.972656 26.03125 126.808594 21.722656 122.101562 16.503906 C 117.914062 11.863281 115.335938 6.890625 114.550781 1.582031 C 114.496094 1.21875 114.324219 0.859375 114.167969 0.386719 C 116.824219 0.277344 119.519531 0.277344 122.425781 0.277344 C 123.882812 3.765625 124.566406 7.375 126.507812 10.710938 C 129.535156 15.910156 135.332031 19.976562 142.214844 23.515625 C 148.9375 26.96875 156.554688 29.085938 165.078125 29.964844 C 168.03125 30.269531 171.105469 30.140625 174.328125 30.3125 C 174.515625 32.265625 174.496094 34.117188 174.480469 35.96875 Z M 174.480469 35.96875 "/>
<path style=" stroke:none;fill-rule:nonzero;fill:rgb(29.803923%,32.941177%,40.784314%);fill-opacity:1;" d="M 108.550781 0.277344 C 109.277344 8.230469 113.398438 15.417969 121.050781 21.789062 C 123.785156 24.066406 127.015625 26.117188 130.078125 28.242188 C 131.53125 29.253906 133.207031 29.800781 135.613281 29.410156 C 136.796875 29.21875 138.214844 29.589844 139.386719 29.804688 C 133.886719 29.851562 133.222656 30.113281 131.539062 32.925781 C 131.160156 32.941406 130.78125 32.957031 130.03125 33.007812 C 128.089844 33.191406 126.523438 33.335938 124.8125 33.511719 C 124.214844 33.84375 123.757812 34.148438 122.820312 34.773438 C 122.480469 33.742188 122.25 33.039062 122.0625 32.234375 C 123.960938 30.832031 125.398438 30.691406 128.007812 31.636719 C 128.332031 31.660156 128.632812 31.621094 129.039062 31.492188 C 130.121094 30.835938 129.433594 30.527344 128.652344 30.285156 C 125.996094 29.460938 123.417969 29.457031 120.992188 30.640625 C 120.6875 30.519531 120.316406 30.261719 120.085938 30.300781 C 117.636719 30.734375 116.269531 29.628906 114.972656 28.78125 C 107.570312 23.949219 103.140625 18.070312 100.402344 11.742188 C 98.816406 8.082031 98.203125 4.257812 97.136719 0.394531 C 100.863281 0.277344 104.601562 0.277344 108.550781 0.277344 Z M 108.550781 0.277344 "/>
<path style=" stroke:none;fill-rule:nonzero;fill:rgb(18.039216%,21.568628%,30.588236%);fill-opacity:1;" d="M 0.449219 29.457031 C 0.902344 29.714844 1.5625 30.058594 1.777344 30.488281 C 6.929688 40.910156 14.085938 50.742188 24.027344 59.769531 C 27.085938 62.546875 30.195312 65.304688 33.261719 68.078125 C 33.554688 68.339844 33.722656 68.652344 33.773438 69.046875 C 28.816406 69.144531 24.03125 69.136719 19.234375 69.027344 C 18.976562 68.550781 18.808594 68.140625 18.476562 67.792969 C 13 62.066406 7.507812 56.339844 1.988281 50.628906 C 1.59375 50.21875 0.964844 49.890625 0.449219 49.527344 C 0.449219 42.878906 0.449219 36.234375 0.449219 29.457031 Z M 0.449219 29.457031 "/>
<path style=" stroke:none;fill-rule:nonzero;fill:rgb(0%,0%,0%);fill-opacity:1;" d="M 19.25 69.125 C 24.03125 69.136719 28.816406 69.144531 33.808594 69.140625 C 37.308594 69.136719 40.601562 69.144531 44.101562 69.140625 C 47.15625 69.136719 50 69.144531 53.054688 69.140625 C 57.003906 69.132812 60.742188 69.144531 64.898438 69.152344 C 73.382812 69.140625 81.449219 69.132812 89.515625 69.125 C 102.460938 69.140625 115.40625 69.164062 128.351562 69.171875 C 139.136719 69.179688 149.925781 69.164062 161.128906 69.15625 C 165.253906 69.160156 168.957031 69.132812 172.660156 69.183594 C 174.113281 69.203125 174.601562 68.890625 174.574219 67.996094 C 174.484375 64.882812 174.496094 61.769531 174.472656 58.652344 C 174.492188 54.679688 174.511719 50.703125 174.523438 46.535156 C 174.515625 46.34375 174.488281 46.21875 174.488281 46.21875 C 174.507812 45.558594 174.527344 44.894531 174.519531 44.113281 C 174.507812 41.402344 174.519531 38.8125 174.507812 36.097656 C 174.496094 34.117188 174.515625 32.265625 174.503906 30.285156 C 174.492188 29.589844 174.511719 29.019531 174.519531 28.265625 C 174.511719 28.082031 174.480469 27.953125 174.480469 27.953125 C 174.5 26.652344 174.519531 25.351562 174.507812 23.921875 C 174.5 19.820312 174.515625 15.847656 174.53125 11.621094 C 174.507812 7.757812 174.492188 4.152344 174.5 0.480469 C 174.53125 0.414062 174.550781 0.277344 174.550781 0.277344 C 174.851562 0.367188 175.351562 0.429688 175.40625 0.558594 C 175.535156 0.863281 175.449219 1.199219 175.449219 1.523438 C 175.449219 24.441406 175.449219 47.359375 175.449219 70.277344 C 117.113281 70.277344 58.78125 70.277344 0.449219 70.277344 C 0.449219 70 0.449219 69.722656 0.65625 69.308594 C 6.996094 69.15625 13.121094 69.140625 19.25 69.125 Z M 19.25 69.125 "/>
<path style=" stroke:none;fill-rule:nonzero;fill:rgb(35.294119%,38.039216%,45.09804%);fill-opacity:1;" d="M 174.472656 0.546875 C 174.492188 4.152344 174.507812 7.757812 174.5 11.492188 C 171.671875 13.683594 168.496094 12.488281 165.804688 11.730469 C 159.582031 9.96875 154.832031 7.175781 152.492188 3.074219 C 152.03125 2.265625 151.972656 1.367188 151.726562 0.394531 C 159.046875 0.277344 166.367188 0.277344 173.949219 0.324219 C 174.289062 0.4375 174.375 0.496094 174.472656 0.546875 Z M 174.472656 0.546875 "/>
<path style=" stroke:none;fill-rule:nonzero;fill:rgb(16.862746%,20.392157%,29.411766%);fill-opacity:1;" d="M 19.234375 69.027344 C 13.121094 69.140625 6.996094 69.15625 0.65625 69.167969 C 0.449219 62.707031 0.449219 56.246094 0.449219 49.65625 C 0.964844 49.890625 1.59375 50.21875 1.988281 50.628906 C 7.507812 56.339844 13 62.066406 18.476562 67.792969 C 18.808594 68.140625 18.976562 68.550781 19.234375 69.027344 Z M 19.234375 69.027344 "/>
<path style=" stroke:none;fill-rule:nonzero;fill:rgb(33.725491%,36.470589%,43.921569%);fill-opacity:1;" d="M 174.5 0.480469 C 174.375 0.496094 174.289062 0.4375 174.15625 0.324219 C 174.105469 0.277344 174.328125 0.277344 174.441406 0.277344 C 174.550781 0.277344 174.53125 0.414062 174.5 0.480469 Z M 174.5 0.480469 "/>
<path style=" stroke:none;fill-rule:nonzero;fill:rgb(25.882354%,29.019609%,37.254903%);fill-opacity:1;" d="M 174.292969 58.679688 C 174.496094 61.769531 174.484375 64.882812 174.574219 67.996094 C 174.601562 68.890625 174.113281 69.203125 172.660156 69.183594 C 168.957031 69.132812 165.253906 69.160156 161.339844 69.140625 C 161.699219 67.988281 160.875 67.601562 159.089844 67.445312 C 149.765625 66.636719 140.703125 65.171875 132.078125 62.839844 C 122.4375 60.238281 113.363281 57.046875 105.046875 52.988281 C 98.289062 49.695312 92.296875 45.980469 86.796875 41.921875 C 85.121094 40.6875 83.695312 39.386719 83.886719 37.5625 C 84.558594 37.417969 85.058594 37.390625 85.703125 37.308594 C 86.019531 36.496094 86.195312 35.742188 86.546875 34.960938 C 87.867188 35.515625 89.152344 36.015625 90.117188 36.695312 C 91.144531 37.417969 92.175781 37.605469 93.726562 37.261719 C 92.683594 36.460938 91.714844 35.714844 90.851562 35.054688 C 91.757812 34.339844 92.519531 33.742188 93.445312 33.171875 C 94.183594 33.519531 94.761719 33.835938 95.328125 34.164062 C 96.359375 34.761719 97.386719 35.367188 98.449219 36.078125 C 98.546875 36.574219 98.605469 36.964844 98.671875 37.367188 C 99.4375 37.40625 100.023438 37.433594 100.613281 37.464844 C 101.910156 38.625 102.964844 39.9375 104.546875 40.925781 C 115.140625 47.539062 127.601562 52.328125 141.792969 55.492188 C 151.277344 57.605469 160.964844 58.824219 171.027344 58.921875 C 172.054688 58.929688 173.089844 58.78125 174.292969 58.679688 Z M 174.292969 58.679688 "/>
<path style=" stroke:none;fill-rule:nonzero;fill:rgb(21.960784%,25.098041%,33.725491%);fill-opacity:1;" d="M 89.472656 69.035156 C 81.449219 69.132812 73.382812 69.140625 65.105469 69.136719 C 64.28125 68.617188 63.738281 68.066406 63.03125 67.617188 C 52.472656 60.832031 43.324219 53.402344 36.039062 45.117188 C 35.292969 44.269531 34.390625 43.460938 33.800781 42.574219 C 32.742188 40.976562 31.867188 39.328125 31.09375 37.570312 C 31.617188 37.066406 32.222656 36.707031 32.261719 36.328125 C 32.386719 35.070312 32.308594 33.804688 32.308594 32.117188 C 33.925781 33.402344 35.105469 34.339844 36.398438 35.367188 C 37.757812 34.292969 38.894531 33.394531 40.027344 32.496094 C 40.226562 32.546875 40.425781 32.597656 40.625 32.648438 C 40.625 34.226562 40.625 35.800781 40.625 37.425781 C 41.921875 37.351562 42.914062 37.296875 44.050781 37.304688 C 45.371094 37.519531 46.285156 37.449219 46.890625 36.628906 C 47.109375 36.332031 48.136719 36.265625 48.792969 36.09375 C 47.003906 38.796875 50.203125 40.628906 52.007812 42.605469 C 59.15625 50.441406 68.488281 57.226562 79.058594 63.367188 C 82.394531 65.308594 85.96875 67.089844 89.472656 69.035156 Z M 89.472656 69.035156 "/>
<path style=" stroke:none;fill-rule:nonzero;fill:rgb(92.941177%,93.333334%,93.725491%);fill-opacity:1;" d="M 85.558594 37.363281 C 85.058594 37.390625 84.558594 37.417969 83.871094 37.464844 C 83.53125 36.511719 83.371094 35.535156 83.171875 34.433594 C 83.132812 32.910156 83.132812 31.507812 83.132812 30.136719 C 88.984375 29.675781 92.1875 29.789062 93.226562 31.878906 C 93.277344 32.425781 93.28125 32.785156 93.28125 33.144531 C 92.519531 33.742188 91.757812 34.339844 90.851562 35.054688 C 91.714844 35.714844 92.683594 36.460938 93.726562 37.261719 C 92.175781 37.605469 91.144531 37.417969 90.117188 36.695312 C 89.152344 36.015625 87.867188 35.515625 86.355469 34.972656 C 85.84375 35.796875 85.699219 36.578125 85.558594 37.363281 M 87.09375 33.597656 C 87.761719 33.589844 88.546875 33.714844 89.070312 33.542969 C 89.804688 33.304688 90.824219 32.847656 90.839844 32.472656 C 90.851562 32.082031 89.921875 31.457031 89.210938 31.328125 C 88.152344 31.132812 86.925781 31.277344 85.53125 31.277344 C 85.988281 32.183594 84.472656 33.1875 87.09375 33.597656 Z M 87.09375 33.597656 "/>
<path style=" stroke:none;fill-rule:nonzero;fill:rgb(93.725491%,93.725491%,94.509804%);fill-opacity:1;" d="M 48.964844 36.0625 C 48.136719 36.265625 47.109375 36.332031 46.890625 36.628906 C 46.285156 37.449219 45.371094 37.519531 44.042969 37.308594 C 43.894531 37.25 43.96875 37.296875 43.96875 37.296875 C 45.183594 35.511719 46.402344 33.730469 47.640625 31.855469 C 48.667969 31.191406 48.210938 29.824219 50.410156 29.894531 C 52.640625 29.960938 52.410156 31.21875 53.050781 31.992188 C 54.4375 33.664062 55.582031 35.414062 56.902344 37.238281 C 55.574219 37.488281 54.671875 37.597656 53.886719 36.707031 C 53.558594 36.332031 52.414062 36.160156 51.585938 36.046875 C 50.808594 35.9375 49.957031 36.03125 48.964844 36.0625 M 49.515625 32.714844 C 49.117188 33.292969 48.71875 33.875 48.246094 34.5625 C 49.757812 34.5625 51.003906 34.5625 52.449219 34.5625 C 51.902344 33.746094 51.464844 33.074219 50.996094 32.40625 C 50.855469 32.207031 50.628906 32.027344 50.351562 31.746094 C 50.066406 32.0625 49.859375 32.292969 49.515625 32.714844 Z M 49.515625 32.714844 "/>
<path style=" stroke:none;fill-rule:nonzero;fill:rgb(94.509804%,94.901961%,95.294118%);fill-opacity:1;" d="M 58.886719 29.914062 C 60.796875 31.058594 62.523438 32.207031 64.246094 33.355469 C 64.621094 33.609375 64.980469 33.875 65.789062 34.449219 C 65.789062 32.941406 65.714844 31.816406 65.839844 30.699219 C 65.871094 30.417969 66.53125 30.167969 66.902344 29.902344 C 67.296875 30.152344 68.019531 30.402344 68.027344 30.65625 C 68.117188 32.859375 68.078125 35.066406 67.738281 37.410156 C 64.519531 36.386719 63.222656 34.238281 60.429688 32.667969 C 60.429688 34.304688 60.429688 35.78125 60.429688 37.332031 C 59.523438 37.332031 58.902344 37.332031 58.058594 37.332031 C 58.058594 34.984375 58.042969 32.691406 58.085938 30.402344 C 58.089844 30.238281 58.488281 30.082031 58.886719 29.914062 Z M 58.886719 29.914062 "/>
<path style=" stroke:none;fill-rule:nonzero;fill:rgb(93.725491%,93.725491%,94.509804%);fill-opacity:1;" d="M 76.761719 29.9375 C 78.074219 31.546875 79.210938 33.136719 80.460938 34.792969 C 81.046875 35.625 81.523438 36.386719 82.296875 37.632812 C 80.949219 37.304688 79.878906 37.246094 79.417969 36.890625 C 77.835938 35.667969 73.332031 35.671875 71.703125 36.90625 C 71.230469 37.261719 70.199219 37.332031 69.421875 37.535156 C 69.292969 37.417969 69.160156 37.300781 69.027344 37.183594 C 70.679688 34.902344 72.253906 32.597656 74.0625 30.367188 C 74.328125 30.042969 75.714844 30.0625 76.761719 29.9375 M 74.929688 32.394531 C 74.480469 33.09375 74.027344 33.792969 73.523438 34.570312 C 75.011719 34.570312 76.203125 34.570312 77.671875 34.570312 C 77.058594 33.679688 76.574219 32.929688 76.007812 32.203125 C 75.949219 32.128906 75.402344 32.203125 74.929688 32.394531 Z M 74.929688 32.394531 "/>
<path style=" stroke:none;fill-rule:nonzero;fill:rgb(93.725491%,93.725491%,94.509804%);fill-opacity:1;" d="M 108.832031 30.175781 C 113.382812 29.273438 116.824219 30.296875 117.714844 32.726562 C 118.441406 34.714844 116.984375 36.648438 114.257812 37.300781 C 111.285156 38.015625 107.871094 37.390625 106.390625 35.863281 C 104.746094 34.167969 105.335938 31.894531 107.761719 30.605469 C 108.042969 30.457031 108.375 30.347656 108.832031 30.175781 M 114.46875 31.78125 C 112.769531 30.867188 110.914062 30.792969 109.199219 31.652344 C 107.554688 32.472656 107.460938 33.648438 108.117188 34.808594 C 108.785156 35.984375 110.386719 36.339844 112.234375 36.25 C 115.304688 36.101562 116.457031 34.050781 114.46875 31.78125 Z M 114.46875 31.78125 "/>
<path style=" stroke:none;fill-rule:nonzero;fill:rgb(92.941177%,93.333334%,94.117647%);fill-opacity:1;" d="M 131.558594 33.046875 C 133.222656 30.113281 133.886719 29.851562 139.441406 29.894531 C 143.695312 30.433594 145.398438 34.324219 142.472656 36.390625 C 142.085938 36.660156 141.570312 36.867188 141.023438 37.171875 C 139.324219 37.316406 137.664062 37.585938 136.121094 37.429688 C 133.003906 37.109375 131.597656 35.65625 131.558594 33.046875 M 138.746094 36.226562 C 141.457031 35.507812 142.46875 34.011719 141.300781 32.449219 C 140.414062 31.269531 138.1875 30.765625 136.203125 31.296875 C 134.117188 31.855469 133.222656 33.574219 134.308594 34.960938 C 135.136719 36.023438 136.628906 36.304688 138.746094 36.226562 Z M 138.746094 36.226562 "/>
<path style=" stroke:none;fill-rule:nonzero;fill:rgb(93.333334%,93.725491%,94.509804%);fill-opacity:1;" d="M 124.953125 33.480469 C 126.523438 33.335938 128.089844 33.191406 129.839844 33.019531 C 130.113281 33.902344 130.375 34.820312 130.222656 35.710938 C 130.148438 36.164062 129.472656 36.6875 128.824219 36.96875 C 126.59375 37.945312 122.9375 37.75 120.964844 36.640625 C 118.996094 35.535156 118.453125 33.445312 119.753906 31.820312 C 120.046875 31.457031 120.484375 31.136719 120.925781 30.71875 C 123.417969 29.457031 125.996094 29.460938 128.652344 30.285156 C 129.433594 30.527344 130.121094 30.835938 128.882812 31.492188 C 128.402344 31.578125 128.191406 31.574219 127.984375 31.570312 C 125.398438 30.691406 123.960938 30.832031 121.953125 32.308594 C 121.816406 33.320312 121.46875 34.25 121.925781 34.984375 C 122.667969 36.171875 124.585938 36.339844 126.441406 36.179688 C 127.554688 36.082031 128.417969 35.722656 128.046875 34.792969 C 128.035156 34.675781 128 34.632812 127.894531 34.5 C 127.289062 34.402344 126.75 34.402344 126.0625 34.375 C 125.707031 34.347656 125.5 34.34375 125.242188 34.257812 C 125.109375 33.945312 125.03125 33.710938 124.953125 33.480469 Z M 124.953125 33.480469 "/>
<path style=" stroke:none;fill-rule:nonzero;fill:rgb(92.54902%,92.941177%,93.725491%);fill-opacity:1;" d="M 100.671875 37.367188 C 100.023438 37.433594 99.4375 37.40625 98.671875 37.367188 C 98.605469 36.964844 98.546875 36.574219 98.488281 35.949219 C 98.492188 34.234375 98.492188 32.753906 98.492188 31.335938 C 96.941406 31.21875 95.777344 31.128906 94.617188 31.039062 C 94.621094 30.886719 94.628906 30.730469 94.585938 30.503906 C 95.140625 30.253906 95.738281 29.941406 96.355469 29.921875 C 98.578125 29.859375 100.8125 29.847656 103.035156 29.929688 C 103.605469 29.949219 104.136719 30.378906 104.6875 30.621094 C 104.140625 30.820312 103.625 31.082031 103.039062 31.195312 C 102.496094 31.300781 101.875 31.246094 100.730469 31.277344 C 100.730469 33.289062 100.730469 35.277344 100.671875 37.367188 Z M 100.671875 37.367188 "/>
<path style=" stroke:none;fill-rule:nonzero;fill:rgb(30.980393%,34.117648%,41.568628%);fill-opacity:1;" d="M 174.457031 46.246094 C 174.488281 46.21875 174.515625 46.34375 174.5 46.40625 C 174.398438 46.410156 174.378906 46.34375 174.457031 46.246094 Z M 174.457031 46.246094 "/>
<path style=" stroke:none;fill-rule:nonzero;fill:rgb(93.333334%,93.725491%,94.509804%);fill-opacity:1;" d="M 43.703125 37.292969 C 43.96875 37.296875 43.894531 37.25 43.902344 37.246094 C 42.914062 37.296875 41.921875 37.351562 40.625 37.425781 C 40.625 35.800781 40.625 34.226562 40.625 32.648438 C 40.425781 32.597656 40.226562 32.546875 40.027344 32.496094 C 38.894531 33.394531 37.757812 34.292969 36.398438 35.367188 C 35.105469 34.339844 33.925781 33.402344 32.308594 32.117188 C 32.308594 33.804688 32.386719 35.070312 32.261719 36.328125 C 32.222656 36.707031 31.617188 37.066406 31.078125 37.464844 C 30.695312 37.457031 30.507812 37.417969 30.179688 37.359375 C 30.035156 34.910156 30.035156 32.480469 30.035156 30.023438 C 34.003906 29.425781 34.015625 32.054688 36.332031 32.734375 C 38.519531 31.894531 38.757812 29.324219 42.890625 30.046875 C 42.890625 31.992188 42.855469 33.960938 42.914062 35.925781 C 42.929688 36.382812 43.257812 36.832031 43.703125 37.292969 Z M 43.703125 37.292969 "/>
<path style=" stroke:none;fill-rule:nonzero;fill:rgb(33.725491%,36.470589%,43.921569%);fill-opacity:1;" d="M 174.449219 27.984375 C 174.480469 27.953125 174.511719 28.082031 174.492188 28.148438 C 174.390625 28.152344 174.371094 28.085938 174.449219 27.984375 Z M 174.449219 27.984375 "/>
<path style=" stroke:none;fill-rule:nonzero;fill:rgb(28.235295%,31.37255%,39.215687%);fill-opacity:1;" d="M 94.535156 31.152344 C 95.777344 31.128906 96.941406 31.21875 98.492188 31.335938 C 98.492188 32.753906 98.492188 34.234375 98.453125 35.84375 C 97.386719 35.367188 96.359375 34.761719 95.328125 34.164062 C 94.761719 33.835938 94.183594 33.519531 93.445312 33.171875 C 93.28125 32.785156 93.277344 32.425781 93.292969 31.957031 C 93.6875 31.65625 94.070312 31.457031 94.535156 31.152344 Z M 94.535156 31.152344 "/>
<path style=" stroke:none;fill-rule:nonzero;fill:rgb(31.37255%,34.509805%,41.960785%);fill-opacity:1;" d="M 126.210938 34.398438 C 126.75 34.402344 127.289062 34.402344 127.867188 34.53125 C 127.875 34.738281 127.914062 34.808594 128.019531 34.863281 C 128.417969 35.722656 127.554688 36.082031 126.441406 36.179688 C 124.585938 36.339844 122.667969 36.171875 121.925781 34.984375 C 121.46875 34.25 121.816406 33.320312 121.910156 32.40625 C 122.25 33.039062 122.480469 33.742188 122.820312 34.773438 C 123.757812 34.148438 124.214844 33.84375 124.8125 33.511719 C 125.03125 33.710938 125.109375 33.945312 125.152344 34.320312 C 125.148438 34.734375 125.175781 35.007812 125.199219 35.28125 C 125.539062 34.988281 125.875 34.691406 126.210938 34.398438 Z M 126.210938 34.398438 "/>
<path style=" stroke:none;fill-rule:nonzero;fill:rgb(45.490196%,47.843137%,54.11765%);fill-opacity:1;" d="M 128.007812 31.636719 C 128.191406 31.574219 128.402344 31.578125 128.773438 31.578125 C 128.632812 31.621094 128.332031 31.660156 128.007812 31.636719 Z M 128.007812 31.636719 "/>
<path style=" stroke:none;fill-rule:nonzero;fill:rgb(23.529412%,26.666668%,35.294119%);fill-opacity:1;" d="M 85.703125 37.308594 C 85.699219 36.578125 85.84375 35.796875 86.175781 35 C 86.195312 35.742188 86.019531 36.496094 85.703125 37.308594 Z M 85.703125 37.308594 "/>
<path style=" stroke:none;fill-rule:nonzero;fill:rgb(30.19608%,33.333334%,41.176471%);fill-opacity:1;" d="M 86.886719 33.59375 C 84.472656 33.1875 85.988281 32.183594 85.53125 31.277344 C 86.925781 31.277344 88.152344 31.132812 89.210938 31.328125 C 89.921875 31.457031 90.851562 32.082031 90.839844 32.472656 C 90.824219 32.847656 89.804688 33.304688 89.070312 33.542969 C 88.546875 33.714844 87.761719 33.589844 86.886719 33.59375 Z M 86.886719 33.59375 "/>
<path style=" stroke:none;fill-rule:nonzero;fill:rgb(29.803923%,32.941177%,40.784314%);fill-opacity:1;" d="M 49.582031 32.621094 C 49.859375 32.292969 50.066406 32.0625 50.351562 31.746094 C 50.628906 32.027344 50.855469 32.207031 50.996094 32.40625 C 51.464844 33.074219 51.902344 33.746094 52.449219 34.5625 C 51.003906 34.5625 49.757812 34.5625 48.246094 34.5625 C 48.71875 33.875 49.117188 33.292969 49.582031 32.621094 Z M 49.582031 32.621094 "/>
<path style=" stroke:none;fill-rule:nonzero;fill:rgb(30.19608%,33.333334%,41.176471%);fill-opacity:1;" d="M 75.007812 32.300781 C 75.402344 32.203125 75.949219 32.128906 76.007812 32.203125 C 76.574219 32.929688 77.058594 33.679688 77.671875 34.570312 C 76.203125 34.570312 75.011719 34.570312 73.523438 34.570312 C 74.027344 33.792969 74.480469 33.09375 75.007812 32.300781 Z M 75.007812 32.300781 "/>
<path style=" stroke:none;fill-rule:nonzero;fill:rgb(30.980393%,34.117648%,41.568628%);fill-opacity:1;" d="M 114.582031 31.867188 C 116.457031 34.050781 115.304688 36.101562 112.234375 36.25 C 110.386719 36.339844 108.785156 35.984375 108.117188 34.808594 C 107.460938 33.648438 107.554688 32.472656 109.199219 31.652344 C 110.914062 30.792969 112.769531 30.867188 114.582031 31.867188 Z M 114.582031 31.867188 "/>
<path style=" stroke:none;fill-rule:nonzero;fill:rgb(32.941177%,35.686275%,43.529412%);fill-opacity:1;" d="M 138.566406 36.242188 C 136.628906 36.304688 135.136719 36.023438 134.308594 34.960938 C 133.222656 33.574219 134.117188 31.855469 136.203125 31.296875 C 138.1875 30.765625 140.414062 31.269531 141.300781 32.449219 C 142.46875 34.011719 141.457031 35.507812 138.566406 36.242188 Z M 138.566406 36.242188 "/>
<path style=" stroke:none;fill-rule:nonzero;fill:rgb(29.803923%,32.941177%,40.784314%);fill-opacity:1;" d="M 126.0625 34.375 C 125.875 34.691406 125.539062 34.988281 125.199219 35.28125 C 125.175781 35.007812 125.148438 34.734375 125.207031 34.402344 C 125.5 34.34375 125.707031 34.347656 126.0625 34.375 Z M 126.0625 34.375 "/>
<path style=" stroke:none;fill-rule:nonzero;fill:rgb(29.803923%,32.941177%,40.784314%);fill-opacity:1;" d="M 128.046875 34.792969 C 127.914062 34.808594 127.875 34.738281 127.933594 34.625 C 128 34.632812 128.035156 34.675781 128.046875 34.792969 Z M 128.046875 34.792969 "/>
</g>
</svg>
